<svg width="616" height="50" viewBox="0 0 616 50" fill="none" xmlns="http://www.w3.org/2000/svg">
<path d="M48.03 0.92L54.68 7.57V42.85L48.03 49.5H7.36L0.71 42.85V7.57L7.36 0.92H48.03ZM46.14 42.85V7.57H9.25V42.85H46.14ZM65.4584 49.5L65.5284 0.92H74.0684V42.85H110.958L104.308 49.5H65.4584ZM156.722 0.92L163.932 7.57H127.182V49.5H118.642V0.92H156.722ZM135.092 28.92L127.882 22.27H157.002L156.932 28.92H135.092ZM167.236 49.5L193.206 0.92H204.826L231.146 49.5H220.996L198.316 7.85L184.106 34.52H211.686L204.336 41.17H180.536L176.056 49.5H167.236ZM242.734 49.5L235.524 42.78V7.57L242.734 0.92H277.454L284.804 7.57H244.064V42.78L284.804 42.85L277.454 49.5H242.734ZM337.389 0.92L344.599 7.57H320.099V49.5H311.559V7.57H286.919L294.129 0.92H337.389ZM394.749 0.92L401.399 7.57V42.85L394.749 49.5H354.079L347.429 42.85V7.57L354.079 0.92H394.749ZM392.859 42.85V7.57H355.969V42.85H392.859ZM456.137 22.9L449.487 29.55H444.727L457.747 49.5H447.597L434.577 29.55H420.717V49.5H412.177V0.989999H449.487L456.137 7.64V22.9ZM447.597 22.9V7.64H420.717V22.9H447.597ZM465.771 49.5V0.92H474.311V49.5H465.771ZM528.363 42.85L521.153 49.5H491.193L483.843 42.85V0.92H492.383V42.85H528.363ZM537.603 0.92V49.5H529.063V0.92H537.603ZM583.14 37.67L559.76 11.49V49.5H551.22V0.92H558.43L583.14 27.66L607.85 0.92H615.06V49.5H606.52V11.49L583.14 37.67Z" fill="black"/>
</svg>
